<svg id="Layer_1" data-name="Layer 1" xmlns="http://www.w3.org/2000/svg" viewBox="0 0 48 48"><defs><style>.cls-1{fill:#919191;}.cls-2{fill:#7c7d7d;}.cls-3{fill:#6fabe6;}.cls-4{fill:#dad7e5;}.cls-5{fill:#c6c3d8;}.cls-6{fill:#82bcf4;}.cls-7{fill:#edebf2;}</style></defs><title>computer, monitor, pc, hardware, screen</title><rect class="cls-1" x="24" y="0.5" width="23.5" height="47"/><rect class="cls-2" x="27.92" y="18.12" width="15.67" height="4.9"/><rect class="cls-2" x="27.92" y="10.29" width="15.67" height="4.9"/><rect class="cls-2" x="27.92" y="25.96" width="15.67" height="4.9"/><rect class="cls-3" x="0.5" y="12.25" width="35.25" height="27.42" rx="1.96"/><path class="cls-4" d="M.5,34.77H35.75a0,0,0,0,1,0,0v2.94a2,2,0,0,1-2,2H2.46a2,2,0,0,1-2-2V34.77A0,0,0,0,1,.5,34.77Z"/><polygon class="cls-5" points="23.02 45.54 13.23 45.54 14.21 39.67 22.04 39.67 23.02 45.54"/><path class="cls-4" d="M12.25,45.54H24a2,2,0,0,1,2,2v0a0,0,0,0,1,0,0H10.29a0,0,0,0,1,0,0v0a2,2,0,0,1,2-2Z"/><path class="cls-2" d="M30.85,44.56h9.79a2.94,2.94,0,0,1,2.94,2.94v0a0,0,0,0,1,0,0H27.92a0,0,0,0,1,0,0v0a2.94,2.94,0,0,1,2.94-2.94Z"/><circle class="cls-5" cx="35.26" cy="5.89" r="1.47"/><polygon class="cls-6" points="11.27 34.77 5.4 34.77 14.21 12.25 20.08 12.25 11.27 34.77"/><polygon class="cls-6" points="15.19 34.77 13.23 34.77 22.04 12.25 24 12.25 15.19 34.77"/><circle class="cls-7" cx="18.13" cy="36.73" r="0.98"/></svg>